<svg xmlns="http://www.w3.org/2000/svg" viewBox="0 0 473.65 410.07"><path d="M236.77 0 0 410.07h473.65l-7.592-13.141zm8.242 49.293 80.238 138.9c-20.594-21.351-48.809-35.28-80.238-37.369zm-16.48.006v101.54c-31.493 2.142-59.767 16.179-80.365 37.65zm16.48 121.36c53.277 4.18 94.967 48.47 94.967 102.85 0 54.304-41.74 98.621-94.967 102.85zm-16.48.014v205.68c-53.139-4.235-94.869-48.513-94.869-102.74v-.1c0-54.27 41.69-98.567 94.87-102.84zm-109.83 68.846a122.437 122.437 0 0 0-4.822 33.994v.1c0 57.075 39.2 105.19 92.053 118.94H30.343zm236.3.181 88.295 152.85h-175.63c52.9-13.765 92.1-61.919 92.1-119.04v-.045h-.002a122.658 122.658 0 0 0-4.76-33.768z" color="currentColor"/></svg>